<svg width="163" height="31" viewBox="0 0 163 31" fill="none" xmlns="http://www.w3.org/2000/svg">
<path d="M156.658 11.3621H155.411V10.9048H158.434V11.3621H157.187V15.0907H156.658V11.3621Z" fill="#3DAD2B"/>
<path d="M162.351 13.2626C162.317 12.6646 162.3 11.9787 162.3 11.4335H162.265C162.129 11.9259 161.958 12.4536 161.736 13.0164L161.001 15.0566H160.609L159.959 13.034C159.754 12.436 159.618 11.9083 159.481 11.3983C159.481 11.9435 159.43 12.6119 159.396 13.245L159.293 15.039H158.798L159.088 10.8179H159.772L160.472 12.8581C160.626 13.3681 160.779 13.8606 160.882 14.2827C160.984 13.8606 161.138 13.4033 161.326 12.8581L162.061 10.8179H162.744L163 15.039H162.47L162.351 13.2626Z" fill="#3DAD2B"/>
<path d="M0 26.4702H2.61353V6.20879H0V3.0957H9.70252C13.1531 3.0957 14.5025 3.44746 15.8349 4.2741C17.8506 5.54044 19.1488 7.89724 19.1488 10.7817C19.1488 13.7365 17.6798 16.533 15.5445 17.8169C13.9559 18.7491 12.726 19.048 10.5395 19.048H6.67902V26.4702H9.83918V29.5833H0V26.4702ZM9.65128 15.9526C13.358 15.9526 14.7929 13.8244 14.7929 10.9224C14.8271 9.58569 14.2976 8.26658 13.358 7.31683C12.2819 6.38467 11.0007 6.1912 9.10466 6.1912H6.67902V15.9526H9.65128Z" fill="#3DAD2B"/>
<path d="M21.4246 26.47H23.7477V12.9976H20.895V9.90208H27.4716V15.3368L27.557 15.4247C28.2915 11.7136 30.4096 9.51514 33.1427 9.51514C33.9285 9.51514 34.7143 9.62067 35.4659 9.8669L35.0217 13.5956C34.4239 13.3845 33.7919 13.279 33.1427 13.2966C29.5214 13.2966 27.8986 16.8493 27.8474 20.3318V26.4524H30.6317V29.5655H21.4246V26.47Z" fill="#3DAD2B"/>
<path d="M52.252 28.7389C50.1167 29.6183 47.8448 30.0755 45.5217 30.1107C39.2014 30.058 35.4434 26.0479 35.4434 19.8921C35.4434 14.0528 38.6206 9.51514 44.8042 9.51514C50.5438 9.51514 53.4477 13.8418 53.4477 19.9097V20.4725H39.7651C39.7992 24.2891 42.5323 26.769 46.3075 26.769C48.4427 26.769 50.5608 26.2589 52.4399 25.2564L52.252 28.7389ZM49.143 17.6232V17.2539C49.143 15.6182 48.1011 12.6282 44.6334 12.6282C41.1658 12.6282 39.9701 15.2313 39.8334 17.6232H49.143Z" fill="#3DAD2B"/>
<path d="M54.7972 26.471H56.9666V12.9986H54.353V9.90308H60.7758V14.2649H60.8612C61.6128 11.7322 63.7652 9.46338 67.5915 9.46338C72.084 9.46338 74.0826 12.3654 74.0826 17.0614C74.0826 20.2097 74.1168 23.3579 74.0826 26.4886H76.5937V29.5841H67.7965V26.471H69.9659C70.0001 23.6042 69.9659 20.667 69.9659 17.8177C69.9659 15.0564 68.8726 13.0162 66.2591 13.0162C63.4406 13.0162 61.1516 15.3202 61.0662 18.9785V26.471H63.6456V29.5841H54.7972V26.471Z" fill="#3DAD2B"/>
<path d="M94.2905 28.7389C92.1553 29.6183 89.8834 30.0755 87.5603 30.1107C81.24 30.058 77.4819 26.0479 77.4819 19.8921C77.4819 14.0528 80.6933 9.51514 86.8428 9.51514C92.5823 9.51514 95.4863 13.8418 95.4863 19.9097V20.4725H81.8207C81.8549 24.2891 84.588 26.769 88.346 26.769C90.4813 26.769 92.5823 26.2589 94.4784 25.2564L94.2905 28.7389ZM91.1645 17.6232V17.2539C91.1645 15.6182 90.1396 12.6282 86.6549 12.6282C83.1702 12.6282 81.9916 15.2313 81.8549 17.6232H91.1645Z" fill="#3DAD2B"/>
<path d="M96.4131 9.44504H99.317V5.01285L103.536 4.73145V9.46263H108.866V12.5757H103.536C103.485 15.724 103.536 18.8019 103.536 21.7742C103.536 25.3798 104.083 26.2944 105.996 26.2944C107.089 26.2944 108.268 25.925 109.207 25.5381L109.054 28.6336C107.721 29.2843 106.286 29.6361 104.817 29.6361C100.769 29.6361 99.317 28.0004 99.317 23.5858C99.317 21.0531 99.2828 16.0406 99.317 12.6285H96.4131V9.44504Z" fill="#3DAD2B"/>
<path d="M117.934 26.4707V9.92035H110.999V13.0334H113.851V26.4883H111.34V29.5838H120.53V26.4707H117.934ZM115.867 5.85751C117.404 5.85751 118.685 4.59117 118.685 2.99066C118.685 2.95549 118.685 2.95549 118.685 2.9379C118.72 1.3198 117.455 0.000696646 115.901 0.000696646C114.329 -0.0344794 113.048 1.26704 113.048 2.86755C113.048 2.90272 113.048 2.90272 113.048 2.92031C113.014 4.50323 114.278 5.82234 115.833 5.82234C115.85 5.85751 115.867 5.85751 115.867 5.85751Z" fill="#3DAD2B"/>
<path d="M133.664 13.19C132.878 12.9438 132.041 12.8383 131.238 12.8383C127.446 12.8383 125.499 15.7755 125.499 19.5042C125.499 22.9162 127.121 26.5394 132.178 26.5394C134.005 26.5394 136.124 25.9765 137.063 25.4137L136.858 29.0896C135.184 29.758 133.442 30.1097 131.631 30.1097C123.978 30.1097 121.382 24.8509 121.382 19.9263C121.382 13.9112 124.986 9.53174 131.665 9.53174C134.569 9.53174 136.277 10.1825 137.097 10.5518V16.1097H133.647L133.664 13.19Z" fill="#3DAD2B"/>
<path d="M150.112 15.6016L150.026 13.2624C149.445 12.9106 148.557 12.6116 146.9 12.6116C144.987 12.6116 143.04 13.0689 143.04 15.0036C143.04 16.5162 144.287 16.9383 145.465 17.2021L150.129 18.1343C152.298 18.5915 154.775 19.5237 154.775 23.5338C154.775 28.7223 150.436 30.0941 146.217 30.0941C143.842 30.0941 141.468 29.7248 139.196 28.9157V23.569H142.869L142.954 26.172C143.689 26.383 144.987 26.981 147.02 26.981C148.984 26.981 150.88 26.2248 150.88 24.2197C150.88 22.5489 149.684 22.0212 148.113 21.7222L145.055 21.1594C142.1 20.5966 138.923 19.471 138.923 15.7071C138.923 11.0815 142.869 9.49854 147.037 9.49854C150.163 9.49854 152.537 10.4131 153.699 10.7825L153.784 15.584L150.112 15.6016Z" fill="#3DAD2B"/>
</svg>
